<?xml version="1.0" encoding="UTF-8"?>
<!DOCTYPE svg PUBLIC "-//W3C//DTD SVG 1.1//EN" "http://www.w3.org/Graphics/SVG/1.1/DTD/svg11.dtd">
<svg xmlns="http://www.w3.org/2000/svg" version="1.1" width="512px" height="512px" style="shape-rendering:geometricPrecision; text-rendering:geometricPrecision; image-rendering:optimizeQuality; fill-rule:evenodd; clip-rule:evenodd" xmlns:xlink="http://www.w3.org/1999/xlink">
<g><path style="opacity:0.95" fill="#000000" d="M 199.5,46.5 C 280.557,44.0589 326.057,83.0589 336,163.5C 343,170.5 350,177.5 357,184.5C 358.64,186.579 359.806,188.912 360.5,191.5C 357.097,199.541 353.597,207.541 350,215.5C 346.74,223.261 344.74,231.261 344,239.5C 345.569,242.128 347.902,243.795 351,244.5C 358.83,245.682 366.497,247.349 374,249.5C 380.061,265.683 385.728,282.017 391,298.5C 391.583,303.972 391.25,309.305 390,314.5C 413.274,321.105 428.774,335.939 436.5,359C 454.833,359.333 473.167,359.667 491.5,360C 493,360.833 494.167,362 495,363.5C 495.667,395.5 495.667,427.5 495,459.5C 494.167,460.5 493.333,461.5 492.5,462.5C 405.54,463.664 318.54,463.831 231.5,463C 182.833,455.333 134.167,447.667 85.5,440C 83.032,438.616 80.8653,436.783 79,434.5C 58,400.167 37,365.833 16,331.5C 14.5568,326.788 15.7235,322.955 19.5,320C 27.0504,315.89 35.0504,314.557 43.5,316C 22.2854,278.972 13.1187,239.139 16,196.5C 24.1098,137.729 54.6098,95.2292 107.5,69C 136.953,56.1362 167.62,48.6362 199.5,46.5 Z M 199.5,63.5 C 210.866,63.2792 222.2,63.7792 233.5,65C 240.448,65.9031 247.115,67.7364 253.5,70.5C 246.746,74.2939 239.913,77.9605 233,81.5C 229.541,92.001 226.708,102.668 224.5,113.5C 216.552,115.371 208.885,118.038 201.5,121.5C 197.572,126.583 198.238,131.083 203.5,135C 204.833,135.167 206.167,135.333 207.5,135.5C 217.71,133.041 227.71,129.875 237.5,126C 240.357,119.08 242.523,111.914 244,104.5C 248.5,109 253,113.5 257.5,118C 267.909,121.916 272.409,118.416 271,107.5C 265.833,101 260,95.1667 253.5,90C 260.051,86.5578 266.717,83.3911 273.5,80.5C 290.564,91.4104 302.731,106.41 310,125.5C 315.378,140.392 318.712,155.725 320,171.5C 326.846,179.012 333.68,186.512 340.5,194C 335.538,205.553 331.371,217.387 328,229.5C 324.03,244.232 329.196,254.399 343.5,260C 349.346,262.003 355.346,263.169 361.5,263.5C 364.426,273.944 367.759,284.277 371.5,294.5C 364.866,295.497 358.2,295.83 351.5,295.5C 351.666,291.486 351.499,287.486 351,283.5C 346,278.167 341,278.167 336,283.5C 335.501,287.486 335.334,291.486 335.5,295.5C 330.167,295.5 324.833,295.5 319.5,295.5C 319.666,291.486 319.499,287.486 319,283.5C 314,278.167 309,278.167 304,283.5C 303.501,287.486 303.334,291.486 303.5,295.5C 299.486,295.334 295.486,295.501 291.5,296C 286.59,300.464 286.257,305.297 290.5,310.5C 294.765,311.439 299.098,311.772 303.5,311.5C 303.334,315.514 303.501,319.514 304,323.5C 309,328.833 314,328.833 319,323.5C 319.499,319.514 319.666,315.514 319.5,311.5C 324.833,311.5 330.167,311.5 335.5,311.5C 335.334,315.514 335.501,319.514 336,323.5C 341,328.833 346,328.833 351,323.5C 351.499,319.514 351.666,315.514 351.5,311.5C 358.2,311.17 364.866,311.503 371.5,312.5C 365.525,330.105 359.858,347.772 354.5,365.5C 326.817,361.297 299.151,356.964 271.5,352.5C 271.667,329.498 271.5,306.498 271,283.5C 266,278.167 261,278.167 256,283.5C 255.667,301.5 255.333,319.5 255,337.5C 239.683,343.495 224.35,349.495 209,355.5C 205.526,353.027 202.36,350.194 199.5,347C 196.207,323.751 184.873,305.751 165.5,293C 157.372,288.467 148.706,286.801 139.5,288C 135.633,291.66 134.466,296.16 136,301.5C 139.977,321.885 144.144,342.218 148.5,362.5C 147.833,362.833 147.167,363.167 146.5,363.5C 142.189,362.339 137.855,361.339 133.5,360.5C 128.265,339.357 120.765,319.024 111,299.5C 104.064,287.897 94.5642,279.064 82.5,273C 77.5715,271.582 72.5715,271.249 67.5,272C 66,272.833 64.8333,274 64,275.5C 63.3333,278.833 63.3333,282.167 64,285.5C 67.83,301.807 71.1633,318.14 74,334.5C 48.6133,298.508 34.4467,258.508 31.5,214.5C 32.5011,176.519 45.6678,143.519 71,115.5C 73.1023,119.929 75.6023,124.095 78.5,128C 73.2802,139.656 68.4469,151.489 64,163.5C 65.0734,177.47 67.9067,191.137 72.5,204.5C 77.581,208.658 82.4144,208.325 87,203.5C 87.1667,202 87.3333,200.5 87.5,199C 85.5633,188.752 83.2299,178.586 80.5,168.5C 84.1167,158.643 88.1167,148.977 92.5,139.5C 101.186,144.346 110.186,148.346 119.5,151.5C 126.608,150.534 129.108,146.534 127,139.5C 125.833,138.333 124.667,137.167 123.5,136C 113.5,131 103.5,126 93.5,121C 89.6627,115.496 86.8293,109.663 85,103.5C 108.975,84.7724 136.142,72.9391 166.5,68C 177.622,66.3049 188.622,64.8049 199.5,63.5 Z M 282.5,184.5 C 293.578,184.066 300.078,189.4 302,200.5C 303.055,207.686 302.388,214.686 300,221.5C 292.755,232.603 284.755,233.27 276,223.5C 268.957,208.892 271.123,195.892 282.5,184.5 Z M 198.5,427.5 C 166.737,413.787 135.071,399.787 103.5,385.5C 96.0377,354.991 89.5377,324.324 84,293.5C 92.2892,301.465 98.6226,310.798 103,321.5C 108.993,338.824 114.993,356.157 121,373.5C 131.926,377.358 143.093,380.525 154.5,383C 169.369,397.701 184.035,412.535 198.5,427.5 Z M 154.5,307.5 C 162.984,310.813 169.484,316.479 174,324.5C 178.867,335.102 182.534,346.102 185,357.5C 201.528,374.362 218.362,390.862 235.5,407C 238.167,407.667 240.833,407.667 243.5,407C 281.322,392.446 320.489,384.613 361,383.5C 366.522,384.188 372.022,385.021 377.5,386C 381.342,386.721 384.676,388.387 387.5,391C 396.667,392.5 400.5,388.667 399,379.5C 391.372,372.23 382.205,368.563 371.5,368.5C 375.158,355.691 379.325,343.024 384,330.5C 398.514,334.025 409.181,342.359 416,355.5C 418.464,362.946 422.297,369.446 427.5,375C 444.83,375.5 462.163,375.667 479.5,375.5C 479.5,399.5 479.5,423.5 479.5,447.5C 400.833,447.667 322.166,447.5 243.5,447C 218.333,421.833 193.167,396.667 168,371.5C 163.181,350.239 158.681,328.906 154.5,307.5 Z M 37.5,333.5 C 44.5552,334.694 50.8885,337.527 56.5,342C 65.2666,348.763 73.4333,356.263 81,364.5C 82.9525,375.942 85.7858,387.109 89.5,398C 117.75,410.861 146.083,423.527 174.5,436C 147.506,432.335 120.506,428.335 93.5,424C 74.4464,394.057 55.7797,363.89 37.5,333.5 Z M 254.5,355.5 C 255.317,357.969 255.817,360.635 256,363.5C 256.833,365 258,366.167 259.5,367C 271.538,369.243 283.538,371.576 295.5,374C 277.237,377.755 259.404,382.922 242,389.5C 235.319,382.652 228.486,375.985 221.5,369.5C 232.696,365.062 243.696,360.395 254.5,355.5 Z"/></g>
<g><path style="opacity:0.941" fill="#000000" d="M 280.5,167.5 C 302.024,166.843 314.857,177.177 319,198.5C 322.164,216.346 316.997,231.18 303.5,243C 284.77,251.978 270.27,247.478 260,229.5C 254.407,215.641 254.074,201.641 259,187.5C 261.215,182.9 264.048,178.734 267.5,175C 271.602,171.954 275.935,169.454 280.5,167.5 Z M 282.5,184.5 C 271.123,195.892 268.957,208.892 276,223.5C 284.755,233.27 292.755,232.603 300,221.5C 302.388,214.686 303.055,207.686 302,200.5C 300.078,189.4 293.578,184.066 282.5,184.5 Z"/></g>
<g><path style="opacity:0.931" fill="#000000" d="M 227.5,191.5 C 234.573,189.864 238.906,192.531 240.5,199.5C 238.827,204.19 235.827,207.857 231.5,210.5C 230.544,211.865 229.878,213.365 229.5,215C 233.255,222.596 235.588,230.596 236.5,239C 235.758,250.738 230.425,259.738 220.5,266C 208.654,271.752 197.654,278.752 187.5,287C 180.388,289.115 176.055,286.615 174.5,279.5C 175.194,276.912 176.36,274.579 178,272.5C 188.107,264.529 198.94,257.696 210.5,252C 215.31,248.693 218.31,244.193 219.5,238.5C 217.62,231.74 215.454,225.074 213,218.5C 212.082,206.332 216.915,197.332 227.5,191.5 Z"/></g>
</svg>
